<?xml version="1.0" encoding="UTF-8"?>
<svg xmlns="http://www.w3.org/2000/svg" xmlns:xlink="http://www.w3.org/1999/xlink" width="810pt" height="809.999993pt" viewBox="0 0 810 809.999993" version="1.2">
<defs>
<clipPath id="clip1">
  <path d="M 220 153 L 590 153 L 590 657.792969 L 220 657.792969 Z M 220 153 "/>
</clipPath>
<clipPath id="clip2">
  <path d="M 226 152.292969 L 263 152.292969 L 263 188 L 226 188 Z M 226 152.292969 "/>
</clipPath>
</defs>
<g id="surface1">
<rect x="0" y="0" width="810" height="809.999993" style="fill:rgb(100%,100%,100%);fill-opacity:1;stroke:none;"/>
<rect x="0" y="0" width="810" height="809.999993" style="fill:rgb(100%,100%,100%);fill-opacity:1;stroke:none;"/>
<rect x="0" y="0" width="810" height="809.999993" style="fill:rgb(50.19989%,59.999084%,9.799194%);fill-opacity:1;stroke:none;"/>
<g clip-path="url(#clip1)" clip-rule="nonzero">
<path style=" stroke:none;fill-rule:nonzero;fill:rgb(100%,100%,100%);fill-opacity:1;" d="M 542.605469 481.84375 C 571.664062 430.402344 589.714844 370.1875 589.714844 324.710938 C 589.714844 228.976562 508.578125 153.972656 405.007812 153.972656 C 301.4375 153.972656 220.296875 228.976562 220.296875 324.710938 C 220.296875 370.1875 238.351562 430.402344 267.40625 481.84375 C 272.628906 491.089844 279.4375 500.804688 286.652344 511.082031 C 301.203125 531.832031 317.363281 555.050781 320.402344 575.621094 C 310.746094 579.191406 304.257812 587.796875 304.257812 598.714844 C 304.257812 605.195312 306.859375 611.066406 311.007812 615.566406 C 306.851562 620.058594 304.257812 626.011719 304.257812 632.605469 C 304.257812 646.492188 315.558594 657.792969 329.445312 657.792969 L 480.570312 657.792969 C 494.457031 657.792969 505.757812 646.492188 505.757812 632.605469 C 505.757812 625.996094 503.148438 620.015625 498.964844 615.515625 C 503.136719 610.921875 505.757812 604.902344 505.757812 598.117188 C 505.757812 587.65625 499.269531 579.15625 489.605469 575.621094 C 492.652344 555.050781 508.8125 531.839844 523.355469 511.089844 C 530.574219 500.804688 537.386719 491.082031 542.605469 481.84375 Z M 488.964844 598.714844 C 488.964844 603.507812 484.640625 607.414062 479.335938 607.414062 L 330.679688 607.414062 C 325.371094 607.414062 321.050781 603.507812 321.050781 598.117188 C 321.050781 592.960938 326.042969 590.617188 330.679688 590.617188 L 479.328125 590.617188 C 483.96875 590.617188 488.964844 592.960938 488.964844 598.714844 Z M 480.570312 641 L 329.445312 641 C 324.820312 641 321.050781 637.238281 321.050781 632.605469 C 321.050781 627.96875 324.820312 624.207031 329.445312 624.207031 L 480.570312 624.207031 C 485.195312 624.207031 488.964844 627.96875 488.964844 632.605469 C 488.964844 637.238281 485.195312 641 480.570312 641 Z M 472.769531 573.824219 L 337.246094 573.824219 C 333.8125 549.085938 316.164062 523.921875 300.402344 501.441406 C 293.433594 491.5 286.851562 482.113281 282.035156 473.582031 C 254.730469 425.257812 237.089844 366.820312 237.089844 324.710938 C 237.089844 238.390625 310.847656 170.769531 405.007812 170.769531 C 499.167969 170.769531 572.925781 238.390625 572.925781 324.710938 C 572.925781 366.820312 555.285156 425.257812 527.980469 473.582031 C 523.164062 482.121094 516.582031 491.507812 509.613281 501.441406 C 493.851562 523.921875 476.203125 549.085938 472.769531 573.824219 Z M 472.769531 573.824219 "/>
</g>
<path style=" stroke:none;fill-rule:nonzero;fill:rgb(100%,100%,100%);fill-opacity:1;" d="M 405.007812 221.148438 C 386.488281 221.148438 371.425781 236.214844 371.425781 254.738281 C 371.425781 273.261719 386.488281 288.328125 405.007812 288.328125 C 423.527344 288.328125 438.589844 273.261719 438.589844 254.738281 C 438.589844 236.214844 423.527344 221.148438 405.007812 221.148438 Z M 405.007812 271.53125 C 395.746094 271.53125 388.214844 264 388.214844 254.738281 C 388.214844 245.476562 395.746094 237.945312 405.007812 237.945312 C 414.269531 237.945312 421.800781 245.476562 421.800781 254.738281 C 421.800781 264 414.269531 271.53125 405.007812 271.53125 Z M 405.007812 271.53125 "/>
<path style=" stroke:none;fill-rule:nonzero;fill:rgb(100%,100%,100%);fill-opacity:1;" d="M 421.800781 305.121094 L 388.214844 305.121094 C 383.742188 305.121094 380.054688 308.628906 379.828125 313.097656 L 371.433594 481.039062 C 371.316406 483.328125 372.144531 485.582031 373.734375 487.242188 C 375.320312 488.914062 377.519531 489.855469 379.820312 489.855469 L 430.195312 489.855469 C 432.496094 489.855469 434.695312 488.914062 436.28125 487.242188 C 437.859375 485.582031 438.699219 483.328125 438.582031 481.039062 L 430.1875 313.097656 C 429.960938 308.628906 426.273438 305.121094 421.800781 305.121094 Z M 388.644531 473.058594 L 396.199219 321.914062 L 413.816406 321.914062 L 421.371094 473.058594 Z M 388.644531 473.058594 "/>
<path style=" stroke:none;fill-rule:nonzero;fill:rgb(100%,100%,100%);fill-opacity:1;" d="M 614.902344 321.914062 L 648.488281 321.914062 L 648.488281 338.707031 L 614.902344 338.707031 Z M 614.902344 321.914062 "/>
<path style=" stroke:none;fill-rule:nonzero;fill:rgb(100%,100%,100%);fill-opacity:1;" d="M 161.527344 321.914062 L 195.109375 321.914062 L 195.109375 338.707031 L 161.527344 338.707031 Z M 161.527344 321.914062 "/>
<path style=" stroke:none;fill-rule:nonzero;fill:rgb(100%,100%,100%);fill-opacity:1;" d="M 568.414062 495.757812 L 580.285156 483.878906 L 604.035156 507.628906 L 592.164062 519.503906 Z M 568.414062 495.757812 "/>
<g clip-path="url(#clip2)" clip-rule="nonzero">
<path style=" stroke:none;fill-rule:nonzero;fill:rgb(100%,100%,100%);fill-opacity:1;" d="M 226.902344 164.058594 L 238.777344 152.183594 L 262.523438 175.933594 L 250.652344 187.808594 Z M 226.902344 164.058594 "/>
</g>
<path style=" stroke:none;fill-rule:nonzero;fill:rgb(100%,100%,100%);fill-opacity:1;" d="M 554.4375 180.183594 L 578.183594 156.433594 L 590.058594 168.308594 L 566.3125 192.058594 Z M 554.4375 180.183594 "/>
<path style=" stroke:none;fill-rule:nonzero;fill:rgb(100%,100%,100%);fill-opacity:1;" d="M 207.390625 509.121094 L 231.144531 485.375 L 243.015625 497.25 L 219.265625 520.996094 Z M 207.390625 509.121094 "/>
</g>
</svg>
