<?xml version="1.0" encoding="UTF-8"?>
<svg xmlns="http://www.w3.org/2000/svg" xmlns:xlink="http://www.w3.org/1999/xlink" width="810pt" height="809.999993pt" viewBox="0 0 810 809.999993" version="1.2">
<defs>
<clipPath id="clip1">
  <path d="M 134.253906 171 L 654 171 L 654 690 L 134.253906 690 Z M 134.253906 171 "/>
</clipPath>
<filter id="alpha" filterUnits="objectBoundingBox" x="0%" y="0%" width="100%" height="100%">
  <feColorMatrix type="matrix" in="SourceGraphic" values="0 0 0 0 1 0 0 0 0 1 0 0 0 0 1 0 0 0 1 0"/>
</filter>
<mask id="mask0">
  <g filter="url(#alpha)">
<rect x="0" y="0" width="810" height="809.999993" style="fill:rgb(0%,0%,0%);fill-opacity:0.749;stroke:none;"/>
  </g>
</mask>
<clipPath id="clip3">
  <path d="M 0.761719 12 L 200.679688 12 L 200.679688 213 L 0.761719 213 Z M 0.761719 12 "/>
</clipPath>
<clipPath id="clip2">
  <rect x="0" y="0" width="201" height="221"/>
</clipPath>
<g id="surface5" clip-path="url(#clip2)">
<g clip-path="url(#clip3)" clip-rule="nonzero">
<path style=" stroke:none;fill-rule:nonzero;fill:rgb(100%,100%,100%);fill-opacity:1;" d="M 129.441406 140.105469 C 122.179688 147.691406 112 152.441406 100.6875 152.441406 C 78.632812 152.441406 60.773438 134.558594 60.773438 112.527344 C 60.773438 101.210938 65.542969 91.035156 73.105469 83.769531 L 73.046875 83.730469 L 136.964844 19.808594 C 125.710938 15.378906 113.519531 12.765625 100.6875 12.765625 C 45.585938 12.765625 0.90625 57.429688 0.90625 112.546875 C 0.90625 167.667969 45.585938 212.328125 100.6875 212.328125 C 155.804688 212.328125 200.46875 167.667969 200.46875 112.546875 C 200.46875 99.695312 197.832031 87.523438 193.402344 76.265625 L 129.503906 140.1875 Z M 129.441406 140.105469 "/>
</g>
</g>
<clipPath id="clip4">
  <path d="M 385 119.488281 L 705 119.488281 L 705 439 L 385 439 Z M 385 119.488281 "/>
</clipPath>
</defs>
<g id="surface1">
<rect x="0" y="0" width="810" height="809.999993" style="fill:rgb(100%,100%,100%);fill-opacity:1;stroke:none;"/>
<rect x="0" y="0" width="810" height="809.999993" style="fill:rgb(100%,100%,100%);fill-opacity:1;stroke:none;"/>
<rect x="0" y="0" width="810" height="809.999993" style="fill:rgb(50.19989%,59.999084%,9.799194%);fill-opacity:1;stroke:none;"/>
<g clip-path="url(#clip1)" clip-rule="nonzero">
<path style=" stroke:none;fill-rule:nonzero;fill:rgb(100%,100%,100%);fill-opacity:1;" d="M 545.554688 335.097656 C 563.015625 362.796875 573.292969 395.445312 573.292969 430.527344 C 573.292969 529.570312 492.730469 610.132812 393.6875 610.132812 C 294.664062 610.132812 214.078125 529.570312 214.078125 430.527344 C 214.078125 331.484375 294.664062 250.921875 393.6875 250.921875 C 428.769531 250.921875 461.417969 261.199219 489.117188 278.660156 L 515.417969 252.335938 L 515.417969 201.46875 C 479.117188 182.152344 437.710938 171.09375 393.6875 171.09375 C 250.398438 171.09375 134.253906 287.242188 134.253906 430.527344 C 134.253906 573.8125 250.398438 689.960938 393.6875 689.960938 C 536.972656 689.960938 653.117188 573.8125 653.117188 430.527344 C 653.117188 386.503906 642.0625 345.09375 622.722656 308.773438 L 571.894531 308.773438 Z M 545.554688 335.097656 "/>
</g>
<use xlink:href="#surface5" transform="matrix(1,0,0,1,293,318)" mask="url(#mask0)"/>
<g clip-path="url(#clip4)" clip-rule="nonzero">
<path style=" stroke:none;fill-rule:nonzero;fill:rgb(100%,100%,100%);fill-opacity:1;" d="M 620.070312 232.382812 L 653.117188 199.3125 L 624.898438 171.09375 L 591.851562 204.144531 L 591.851562 119.488281 L 535.394531 175.925781 L 535.394531 260.597656 L 385.425781 410.570312 L 413.640625 438.789062 L 563.613281 288.816406 L 648.289062 288.816406 L 704.726562 232.382812 Z M 620.070312 232.382812 "/>
</g>
</g>
</svg>
